<?xml version="1.0" standalone="no"?>
<svg xmlns="http://www.w3.org/2000/svg" width="300" height="300"><defs><clipPath id="clip-path-dot-color"><rect x="2" y="66" width="8" height="8" transform="rotate(0,6,70)"/><rect x="2" y="74" width="8" height="8" transform="rotate(0,6,78)"/><rect x="2" y="82" width="8" height="8" transform="rotate(0,6,86)"/><rect x="2" y="90" width="8" height="8" transform="rotate(0,6,94)"/><rect x="2" y="114" width="8" height="8" transform="rotate(0,6,118)"/><rect x="2" y="146" width="8" height="8" transform="rotate(0,6,150)"/><rect x="2" y="178" width="8" height="8" transform="rotate(0,6,182)"/><rect x="2" y="186" width="8" height="8" transform="rotate(0,6,190)"/><rect x="2" y="210" width="8" height="8" transform="rotate(0,6,214)"/><rect x="2" y="218" width="8" height="8" transform="rotate(0,6,222)"/><rect x="10" y="74" width="8" height="8" transform="rotate(0,14,78)"/><rect x="10" y="82" width="8" height="8" transform="rotate(0,14,86)"/><rect x="10" y="90" width="8" height="8" transform="rotate(0,14,94)"/><rect x="10" y="122" width="8" height="8" transform="rotate(0,14,126)"/><rect x="10" y="130" width="8" height="8" transform="rotate(0,14,134)"/><rect x="10" y="138" width="8" height="8" transform="rotate(0,14,142)"/><rect x="10" y="170" width="8" height="8" transform="rotate(0,14,174)"/><rect x="10" y="178" width="8" height="8" transform="rotate(0,14,182)"/><rect x="10" y="186" width="8" height="8" transform="rotate(0,14,190)"/><rect x="10" y="194" width="8" height="8" transform="rotate(0,14,198)"/><rect x="10" y="210" width="8" height="8" transform="rotate(0,14,214)"/><rect x="10" y="218" width="8" height="8" transform="rotate(0,14,222)"/><rect x="10" y="226" width="8" height="8" transform="rotate(0,14,230)"/><rect x="18" y="66" width="8" height="8" transform="rotate(0,22,70)"/><rect x="18" y="90" width="8" height="8" transform="rotate(0,22,94)"/><rect x="18" y="106" width="8" height="8" transform="rotate(0,22,110)"/><rect x="18" y="114" width="8" height="8" transform="rotate(0,22,118)"/><rect x="18" y="122" width="8" height="8" transform="rotate(0,22,126)"/><rect x="18" y="138" width="8" height="8" transform="rotate(0,22,142)"/><rect x="18" y="186" width="8" height="8" transform="rotate(0,22,190)"/><rect x="18" y="210" width="8" height="8" transform="rotate(0,22,214)"/><rect x="18" y="218" width="8" height="8" transform="rotate(0,22,222)"/><rect x="26" y="66" width="8" height="8" transform="rotate(0,30,70)"/><rect x="26" y="90" width="8" height="8" transform="rotate(0,30,94)"/><rect x="26" y="98" width="8" height="8" transform="rotate(0,30,102)"/><rect x="26" y="138" width="8" height="8" transform="rotate(0,30,142)"/><rect x="26" y="178" width="8" height="8" transform="rotate(0,30,182)"/><rect x="26" y="186" width="8" height="8" transform="rotate(0,30,190)"/><rect x="26" y="210" width="8" height="8" transform="rotate(0,30,214)"/><rect x="34" y="74" width="8" height="8" transform="rotate(0,38,78)"/><rect x="34" y="82" width="8" height="8" transform="rotate(0,38,86)"/><rect x="34" y="98" width="8" height="8" transform="rotate(0,38,102)"/><rect x="34" y="106" width="8" height="8" transform="rotate(0,38,110)"/><rect x="34" y="122" width="8" height="8" transform="rotate(0,38,126)"/><rect x="34" y="154" width="8" height="8" transform="rotate(0,38,158)"/><rect x="34" y="186" width="8" height="8" transform="rotate(0,38,190)"/><rect x="34" y="202" width="8" height="8" transform="rotate(0,38,206)"/><rect x="34" y="218" width="8" height="8" transform="rotate(0,38,222)"/><rect x="42" y="66" width="8" height="8" transform="rotate(0,46,70)"/><rect x="42" y="90" width="8" height="8" transform="rotate(0,46,94)"/><rect x="42" y="114" width="8" height="8" transform="rotate(0,46,118)"/><rect x="42" y="122" width="8" height="8" transform="rotate(0,46,126)"/><rect x="42" y="138" width="8" height="8" transform="rotate(0,46,142)"/><rect x="42" y="154" width="8" height="8" transform="rotate(0,46,158)"/><rect x="42" y="162" width="8" height="8" transform="rotate(0,46,166)"/><rect x="42" y="170" width="8" height="8" transform="rotate(0,46,174)"/><rect x="42" y="178" width="8" height="8" transform="rotate(0,46,182)"/><rect x="42" y="194" width="8" height="8" transform="rotate(0,46,198)"/><rect x="42" y="218" width="8" height="8" transform="rotate(0,46,222)"/><rect x="42" y="226" width="8" height="8" transform="rotate(0,46,230)"/><rect x="50" y="66" width="8" height="8" transform="rotate(0,54,70)"/><rect x="50" y="82" width="8" height="8" transform="rotate(0,54,86)"/><rect x="50" y="98" width="8" height="8" transform="rotate(0,54,102)"/><rect x="50" y="114" width="8" height="8" transform="rotate(0,54,118)"/><rect x="50" y="130" width="8" height="8" transform="rotate(0,54,134)"/><rect x="50" y="146" width="8" height="8" transform="rotate(0,54,150)"/><rect x="50" y="162" width="8" height="8" transform="rotate(0,54,166)"/><rect x="50" y="178" width="8" height="8" transform="rotate(0,54,182)"/><rect x="50" y="194" width="8" height="8" transform="rotate(0,54,198)"/><rect x="50" y="210" width="8" height="8" transform="rotate(0,54,214)"/><rect x="50" y="226" width="8" height="8" transform="rotate(0,54,230)"/><rect x="58" y="66" width="8" height="8" transform="rotate(0,62,70)"/><rect x="58" y="74" width="8" height="8" transform="rotate(0,62,78)"/><rect x="58" y="82" width="8" height="8" transform="rotate(0,62,86)"/><rect x="58" y="122" width="8" height="8" transform="rotate(0,62,126)"/><rect x="58" y="138" width="8" height="8" transform="rotate(0,62,142)"/><rect x="58" y="170" width="8" height="8" transform="rotate(0,62,174)"/><rect x="58" y="186" width="8" height="8" transform="rotate(0,62,190)"/><rect x="66" y="10" width="8" height="8" transform="rotate(0,70,14)"/><rect x="66" y="26" width="8" height="8" transform="rotate(0,70,30)"/><rect x="66" y="42" width="8" height="8" transform="rotate(0,70,46)"/><rect x="66" y="50" width="8" height="8" transform="rotate(0,70,54)"/><rect x="66" y="58" width="8" height="8" transform="rotate(0,70,62)"/><rect x="66" y="66" width="8" height="8" transform="rotate(0,70,70)"/><rect x="66" y="74" width="8" height="8" transform="rotate(0,70,78)"/><rect x="66" y="82" width="8" height="8" transform="rotate(0,70,86)"/><rect x="66" y="90" width="8" height="8" transform="rotate(0,70,94)"/><rect x="66" y="98" width="8" height="8" transform="rotate(0,70,102)"/><rect x="66" y="130" width="8" height="8" transform="rotate(0,70,134)"/><rect x="66" y="138" width="8" height="8" transform="rotate(0,70,142)"/><rect x="66" y="162" width="8" height="8" transform="rotate(0,70,166)"/><rect x="66" y="170" width="8" height="8" transform="rotate(0,70,174)"/><rect x="66" y="202" width="8" height="8" transform="rotate(0,70,206)"/><rect x="66" y="210" width="8" height="8" transform="rotate(0,70,214)"/><rect x="66" y="218" width="8" height="8" transform="rotate(0,70,222)"/><rect x="66" y="226" width="8" height="8" transform="rotate(0,70,230)"/><rect x="66" y="234" width="8" height="8" transform="rotate(0,70,238)"/><rect x="66" y="242" width="8" height="8" transform="rotate(0,70,246)"/><rect x="66" y="250" width="8" height="8" transform="rotate(0,70,254)"/><rect x="66" y="266" width="8" height="8" transform="rotate(0,70,270)"/><rect x="66" y="274" width="8" height="8" transform="rotate(0,70,278)"/><rect x="66" y="290" width="8" height="8" transform="rotate(0,70,294)"/><rect x="74" y="10" width="8" height="8" transform="rotate(0,78,14)"/><rect x="74" y="26" width="8" height="8" transform="rotate(0,78,30)"/><rect x="74" y="34" width="8" height="8" transform="rotate(0,78,38)"/><rect x="74" y="74" width="8" height="8" transform="rotate(0,78,78)"/><rect x="74" y="82" width="8" height="8" transform="rotate(0,78,86)"/><rect x="74" y="90" width="8" height="8" transform="rotate(0,78,94)"/><rect x="74" y="98" width="8" height="8" transform="rotate(0,78,102)"/><rect x="74" y="106" width="8" height="8" transform="rotate(0,78,110)"/><rect x="74" y="122" width="8" height="8" transform="rotate(0,78,126)"/><rect x="74" y="130" width="8" height="8" transform="rotate(0,78,134)"/><rect x="74" y="146" width="8" height="8" transform="rotate(0,78,150)"/><rect x="74" y="194" width="8" height="8" transform="rotate(0,78,198)"/><rect x="74" y="226" width="8" height="8" transform="rotate(0,78,230)"/><rect x="74" y="234" width="8" height="8" transform="rotate(0,78,238)"/><rect x="74" y="242" width="8" height="8" transform="rotate(0,78,246)"/><rect x="74" y="274" width="8" height="8" transform="rotate(0,78,278)"/><rect x="74" y="282" width="8" height="8" transform="rotate(0,78,286)"/><rect x="74" y="290" width="8" height="8" transform="rotate(0,78,294)"/><rect x="82" y="2" width="8" height="8" transform="rotate(0,86,6)"/><rect x="82" y="26" width="8" height="8" transform="rotate(0,86,30)"/><rect x="82" y="50" width="8" height="8" transform="rotate(0,86,54)"/><rect x="82" y="58" width="8" height="8" transform="rotate(0,86,62)"/><rect x="82" y="74" width="8" height="8" transform="rotate(0,86,78)"/><rect x="82" y="82" width="8" height="8" transform="rotate(0,86,86)"/><rect x="82" y="106" width="8" height="8" transform="rotate(0,86,110)"/><rect x="82" y="138" width="8" height="8" transform="rotate(0,86,142)"/><rect x="82" y="146" width="8" height="8" transform="rotate(0,86,150)"/><rect x="82" y="154" width="8" height="8" transform="rotate(0,86,158)"/><rect x="82" y="178" width="8" height="8" transform="rotate(0,86,182)"/><rect x="82" y="194" width="8" height="8" transform="rotate(0,86,198)"/><rect x="82" y="226" width="8" height="8" transform="rotate(0,86,230)"/><rect x="82" y="242" width="8" height="8" transform="rotate(0,86,246)"/><rect x="82" y="274" width="8" height="8" transform="rotate(0,86,278)"/><rect x="82" y="282" width="8" height="8" transform="rotate(0,86,286)"/><rect x="82" y="290" width="8" height="8" transform="rotate(0,86,294)"/><rect x="90" y="18" width="8" height="8" transform="rotate(0,94,22)"/><rect x="90" y="26" width="8" height="8" transform="rotate(0,94,30)"/><rect x="90" y="34" width="8" height="8" transform="rotate(0,94,38)"/><rect x="90" y="58" width="8" height="8" transform="rotate(0,94,62)"/><rect x="90" y="106" width="8" height="8" transform="rotate(0,94,110)"/><rect x="90" y="114" width="8" height="8" transform="rotate(0,94,118)"/><rect x="90" y="146" width="8" height="8" transform="rotate(0,94,150)"/><rect x="90" y="154" width="8" height="8" transform="rotate(0,94,158)"/><rect x="90" y="170" width="8" height="8" transform="rotate(0,94,174)"/><rect x="90" y="178" width="8" height="8" transform="rotate(0,94,182)"/><rect x="90" y="202" width="8" height="8" transform="rotate(0,94,206)"/><rect x="90" y="218" width="8" height="8" transform="rotate(0,94,222)"/><rect x="90" y="226" width="8" height="8" transform="rotate(0,94,230)"/><rect x="90" y="258" width="8" height="8" transform="rotate(0,94,262)"/><rect x="90" y="282" width="8" height="8" transform="rotate(0,94,286)"/><rect x="98" y="2" width="8" height="8" transform="rotate(0,102,6)"/><rect x="98" y="10" width="8" height="8" transform="rotate(0,102,14)"/><rect x="98" y="50" width="8" height="8" transform="rotate(0,102,54)"/><rect x="98" y="74" width="8" height="8" transform="rotate(0,102,78)"/><rect x="98" y="82" width="8" height="8" transform="rotate(0,102,86)"/><rect x="98" y="98" width="8" height="8" transform="rotate(0,102,102)"/><rect x="98" y="122" width="8" height="8" transform="rotate(0,102,126)"/><rect x="98" y="154" width="8" height="8" transform="rotate(0,102,158)"/><rect x="98" y="170" width="8" height="8" transform="rotate(0,102,174)"/><rect x="98" y="186" width="8" height="8" transform="rotate(0,102,190)"/><rect x="98" y="194" width="8" height="8" transform="rotate(0,102,198)"/><rect x="98" y="202" width="8" height="8" transform="rotate(0,102,206)"/><rect x="98" y="218" width="8" height="8" transform="rotate(0,102,222)"/><rect x="98" y="226" width="8" height="8" transform="rotate(0,102,230)"/><rect x="98" y="234" width="8" height="8" transform="rotate(0,102,238)"/><rect x="98" y="242" width="8" height="8" transform="rotate(0,102,246)"/><rect x="98" y="250" width="8" height="8" transform="rotate(0,102,254)"/><rect x="106" y="2" width="8" height="8" transform="rotate(0,110,6)"/><rect x="106" y="26" width="8" height="8" transform="rotate(0,110,30)"/><rect x="106" y="34" width="8" height="8" transform="rotate(0,110,38)"/><rect x="106" y="42" width="8" height="8" transform="rotate(0,110,46)"/><rect x="106" y="58" width="8" height="8" transform="rotate(0,110,62)"/><rect x="106" y="66" width="8" height="8" transform="rotate(0,110,70)"/><rect x="106" y="90" width="8" height="8" transform="rotate(0,110,94)"/><rect x="106" y="106" width="8" height="8" transform="rotate(0,110,110)"/><rect x="106" y="122" width="8" height="8" transform="rotate(0,110,126)"/><rect x="106" y="138" width="8" height="8" transform="rotate(0,110,142)"/><rect x="106" y="154" width="8" height="8" transform="rotate(0,110,158)"/><rect x="106" y="170" width="8" height="8" transform="rotate(0,110,174)"/><rect x="106" y="178" width="8" height="8" transform="rotate(0,110,182)"/><rect x="106" y="194" width="8" height="8" transform="rotate(0,110,198)"/><rect x="106" y="242" width="8" height="8" transform="rotate(0,110,246)"/><rect x="106" y="250" width="8" height="8" transform="rotate(0,110,254)"/><rect x="106" y="266" width="8" height="8" transform="rotate(0,110,270)"/><rect x="106" y="282" width="8" height="8" transform="rotate(0,110,286)"/><rect x="106" y="290" width="8" height="8" transform="rotate(0,110,294)"/><rect x="114" y="2" width="8" height="8" transform="rotate(0,118,6)"/><rect x="114" y="18" width="8" height="8" transform="rotate(0,118,22)"/><rect x="114" y="26" width="8" height="8" transform="rotate(0,118,30)"/><rect x="114" y="50" width="8" height="8" transform="rotate(0,118,54)"/><rect x="114" y="58" width="8" height="8" transform="rotate(0,118,62)"/><rect x="114" y="74" width="8" height="8" transform="rotate(0,118,78)"/><rect x="114" y="98" width="8" height="8" transform="rotate(0,118,102)"/><rect x="114" y="106" width="8" height="8" transform="rotate(0,118,110)"/><rect x="114" y="138" width="8" height="8" transform="rotate(0,118,142)"/><rect x="114" y="146" width="8" height="8" transform="rotate(0,118,150)"/><rect x="114" y="154" width="8" height="8" transform="rotate(0,118,158)"/><rect x="114" y="186" width="8" height="8" transform="rotate(0,118,190)"/><rect x="114" y="194" width="8" height="8" transform="rotate(0,118,198)"/><rect x="114" y="202" width="8" height="8" transform="rotate(0,118,206)"/><rect x="114" y="210" width="8" height="8" transform="rotate(0,118,214)"/><rect x="114" y="250" width="8" height="8" transform="rotate(0,118,254)"/><rect x="114" y="258" width="8" height="8" transform="rotate(0,118,262)"/><rect x="114" y="274" width="8" height="8" transform="rotate(0,118,278)"/><rect x="114" y="290" width="8" height="8" transform="rotate(0,118,294)"/><rect x="122" y="2" width="8" height="8" transform="rotate(0,126,6)"/><rect x="122" y="34" width="8" height="8" transform="rotate(0,126,38)"/><rect x="122" y="58" width="8" height="8" transform="rotate(0,126,62)"/><rect x="122" y="66" width="8" height="8" transform="rotate(0,126,70)"/><rect x="122" y="90" width="8" height="8" transform="rotate(0,126,94)"/><rect x="122" y="98" width="8" height="8" transform="rotate(0,126,102)"/><rect x="122" y="114" width="8" height="8" transform="rotate(0,126,118)"/><rect x="122" y="122" width="8" height="8" transform="rotate(0,126,126)"/><rect x="122" y="138" width="8" height="8" transform="rotate(0,126,142)"/><rect x="122" y="170" width="8" height="8" transform="rotate(0,126,174)"/><rect x="122" y="186" width="8" height="8" transform="rotate(0,126,190)"/><rect x="122" y="194" width="8" height="8" transform="rotate(0,126,198)"/><rect x="122" y="202" width="8" height="8" transform="rotate(0,126,206)"/><rect x="122" y="210" width="8" height="8" transform="rotate(0,126,214)"/><rect x="122" y="218" width="8" height="8" transform="rotate(0,126,222)"/><rect x="122" y="226" width="8" height="8" transform="rotate(0,126,230)"/><rect x="122" y="250" width="8" height="8" transform="rotate(0,126,254)"/><rect x="130" y="18" width="8" height="8" transform="rotate(0,134,22)"/><rect x="130" y="34" width="8" height="8" transform="rotate(0,134,38)"/><rect x="130" y="50" width="8" height="8" transform="rotate(0,134,54)"/><rect x="130" y="58" width="8" height="8" transform="rotate(0,134,62)"/><rect x="130" y="66" width="8" height="8" transform="rotate(0,134,70)"/><rect x="130" y="74" width="8" height="8" transform="rotate(0,134,78)"/><rect x="130" y="82" width="8" height="8" transform="rotate(0,134,86)"/><rect x="130" y="98" width="8" height="8" transform="rotate(0,134,102)"/><rect x="130" y="114" width="8" height="8" transform="rotate(0,134,118)"/><rect x="130" y="122" width="8" height="8" transform="rotate(0,134,126)"/><rect x="130" y="130" width="8" height="8" transform="rotate(0,134,134)"/><rect x="130" y="146" width="8" height="8" transform="rotate(0,134,150)"/><rect x="130" y="162" width="8" height="8" transform="rotate(0,134,166)"/><rect x="130" y="170" width="8" height="8" transform="rotate(0,134,174)"/><rect x="130" y="194" width="8" height="8" transform="rotate(0,134,198)"/><rect x="130" y="218" width="8" height="8" transform="rotate(0,134,222)"/><rect x="130" y="234" width="8" height="8" transform="rotate(0,134,238)"/><rect x="130" y="242" width="8" height="8" transform="rotate(0,134,246)"/><rect x="130" y="250" width="8" height="8" transform="rotate(0,134,254)"/><rect x="130" y="266" width="8" height="8" transform="rotate(0,134,270)"/><rect x="130" y="274" width="8" height="8" transform="rotate(0,134,278)"/><rect x="130" y="282" width="8" height="8" transform="rotate(0,134,286)"/><rect x="130" y="290" width="8" height="8" transform="rotate(0,134,294)"/><rect x="138" y="10" width="8" height="8" transform="rotate(0,142,14)"/><rect x="138" y="34" width="8" height="8" transform="rotate(0,142,38)"/><rect x="138" y="42" width="8" height="8" transform="rotate(0,142,46)"/><rect x="138" y="66" width="8" height="8" transform="rotate(0,142,70)"/><rect x="138" y="122" width="8" height="8" transform="rotate(0,142,126)"/><rect x="138" y="146" width="8" height="8" transform="rotate(0,142,150)"/><rect x="138" y="154" width="8" height="8" transform="rotate(0,142,158)"/><rect x="138" y="162" width="8" height="8" transform="rotate(0,142,166)"/><rect x="138" y="186" width="8" height="8" transform="rotate(0,142,190)"/><rect x="138" y="194" width="8" height="8" transform="rotate(0,142,198)"/><rect x="138" y="202" width="8" height="8" transform="rotate(0,142,206)"/><rect x="138" y="210" width="8" height="8" transform="rotate(0,142,214)"/><rect x="138" y="242" width="8" height="8" transform="rotate(0,142,246)"/><rect x="138" y="258" width="8" height="8" transform="rotate(0,142,262)"/><rect x="138" y="274" width="8" height="8" transform="rotate(0,142,278)"/><rect x="138" y="290" width="8" height="8" transform="rotate(0,142,294)"/><rect x="146" y="34" width="8" height="8" transform="rotate(0,150,38)"/><rect x="146" y="42" width="8" height="8" transform="rotate(0,150,46)"/><rect x="146" y="50" width="8" height="8" transform="rotate(0,150,54)"/><rect x="146" y="66" width="8" height="8" transform="rotate(0,150,70)"/><rect x="146" y="82" width="8" height="8" transform="rotate(0,150,86)"/><rect x="146" y="90" width="8" height="8" transform="rotate(0,150,94)"/><rect x="146" y="114" width="8" height="8" transform="rotate(0,150,118)"/><rect x="146" y="122" width="8" height="8" transform="rotate(0,150,126)"/><rect x="146" y="138" width="8" height="8" transform="rotate(0,150,142)"/><rect x="146" y="154" width="8" height="8" transform="rotate(0,150,158)"/><rect x="146" y="194" width="8" height="8" transform="rotate(0,150,198)"/><rect x="146" y="202" width="8" height="8" transform="rotate(0,150,206)"/><rect x="146" y="210" width="8" height="8" transform="rotate(0,150,214)"/><rect x="146" y="226" width="8" height="8" transform="rotate(0,150,230)"/><rect x="146" y="234" width="8" height="8" transform="rotate(0,150,238)"/><rect x="146" y="242" width="8" height="8" transform="rotate(0,150,246)"/><rect x="146" y="250" width="8" height="8" transform="rotate(0,150,254)"/><rect x="146" y="258" width="8" height="8" transform="rotate(0,150,262)"/><rect x="146" y="274" width="8" height="8" transform="rotate(0,150,278)"/><rect x="146" y="282" width="8" height="8" transform="rotate(0,150,286)"/><rect x="146" y="290" width="8" height="8" transform="rotate(0,150,294)"/><rect x="154" y="34" width="8" height="8" transform="rotate(0,158,38)"/><rect x="154" y="42" width="8" height="8" transform="rotate(0,158,46)"/><rect x="154" y="58" width="8" height="8" transform="rotate(0,158,62)"/><rect x="154" y="66" width="8" height="8" transform="rotate(0,158,70)"/><rect x="154" y="74" width="8" height="8" transform="rotate(0,158,78)"/><rect x="154" y="90" width="8" height="8" transform="rotate(0,158,94)"/><rect x="154" y="98" width="8" height="8" transform="rotate(0,158,102)"/><rect x="154" y="106" width="8" height="8" transform="rotate(0,158,110)"/><rect x="154" y="114" width="8" height="8" transform="rotate(0,158,118)"/><rect x="154" y="130" width="8" height="8" transform="rotate(0,158,134)"/><rect x="154" y="146" width="8" height="8" transform="rotate(0,158,150)"/><rect x="154" y="162" width="8" height="8" transform="rotate(0,158,166)"/><rect x="154" y="170" width="8" height="8" transform="rotate(0,158,174)"/><rect x="154" y="178" width="8" height="8" transform="rotate(0,158,182)"/><rect x="154" y="186" width="8" height="8" transform="rotate(0,158,190)"/><rect x="154" y="194" width="8" height="8" transform="rotate(0,158,198)"/><rect x="154" y="258" width="8" height="8" transform="rotate(0,158,262)"/><rect x="154" y="274" width="8" height="8" transform="rotate(0,158,278)"/><rect x="154" y="290" width="8" height="8" transform="rotate(0,158,294)"/><rect x="162" y="18" width="8" height="8" transform="rotate(0,166,22)"/><rect x="162" y="42" width="8" height="8" transform="rotate(0,166,46)"/><rect x="162" y="50" width="8" height="8" transform="rotate(0,166,54)"/><rect x="162" y="98" width="8" height="8" transform="rotate(0,166,102)"/><rect x="162" y="106" width="8" height="8" transform="rotate(0,166,110)"/><rect x="162" y="122" width="8" height="8" transform="rotate(0,166,126)"/><rect x="162" y="130" width="8" height="8" transform="rotate(0,166,134)"/><rect x="162" y="146" width="8" height="8" transform="rotate(0,166,150)"/><rect x="162" y="170" width="8" height="8" transform="rotate(0,166,174)"/><rect x="162" y="194" width="8" height="8" transform="rotate(0,166,198)"/><rect x="162" y="202" width="8" height="8" transform="rotate(0,166,206)"/><rect x="162" y="218" width="8" height="8" transform="rotate(0,166,222)"/><rect x="162" y="226" width="8" height="8" transform="rotate(0,166,230)"/><rect x="162" y="242" width="8" height="8" transform="rotate(0,166,246)"/><rect x="162" y="250" width="8" height="8" transform="rotate(0,166,254)"/><rect x="162" y="258" width="8" height="8" transform="rotate(0,166,262)"/><rect x="162" y="282" width="8" height="8" transform="rotate(0,166,286)"/><rect x="170" y="18" width="8" height="8" transform="rotate(0,174,22)"/><rect x="170" y="26" width="8" height="8" transform="rotate(0,174,30)"/><rect x="170" y="42" width="8" height="8" transform="rotate(0,174,46)"/><rect x="170" y="66" width="8" height="8" transform="rotate(0,174,70)"/><rect x="170" y="98" width="8" height="8" transform="rotate(0,174,102)"/><rect x="170" y="106" width="8" height="8" transform="rotate(0,174,110)"/><rect x="170" y="114" width="8" height="8" transform="rotate(0,174,118)"/><rect x="170" y="122" width="8" height="8" transform="rotate(0,174,126)"/><rect x="170" y="130" width="8" height="8" transform="rotate(0,174,134)"/><rect x="170" y="138" width="8" height="8" transform="rotate(0,174,142)"/><rect x="170" y="162" width="8" height="8" transform="rotate(0,174,166)"/><rect x="170" y="170" width="8" height="8" transform="rotate(0,174,174)"/><rect x="170" y="178" width="8" height="8" transform="rotate(0,174,182)"/><rect x="170" y="194" width="8" height="8" transform="rotate(0,174,198)"/><rect x="170" y="202" width="8" height="8" transform="rotate(0,174,206)"/><rect x="170" y="234" width="8" height="8" transform="rotate(0,174,238)"/><rect x="170" y="242" width="8" height="8" transform="rotate(0,174,246)"/><rect x="170" y="274" width="8" height="8" transform="rotate(0,174,278)"/><rect x="170" y="282" width="8" height="8" transform="rotate(0,174,286)"/><rect x="170" y="290" width="8" height="8" transform="rotate(0,174,294)"/><rect x="178" y="10" width="8" height="8" transform="rotate(0,182,14)"/><rect x="178" y="34" width="8" height="8" transform="rotate(0,182,38)"/><rect x="178" y="42" width="8" height="8" transform="rotate(0,182,46)"/><rect x="178" y="50" width="8" height="8" transform="rotate(0,182,54)"/><rect x="178" y="58" width="8" height="8" transform="rotate(0,182,62)"/><rect x="178" y="66" width="8" height="8" transform="rotate(0,182,70)"/><rect x="178" y="74" width="8" height="8" transform="rotate(0,182,78)"/><rect x="178" y="114" width="8" height="8" transform="rotate(0,182,118)"/><rect x="178" y="162" width="8" height="8" transform="rotate(0,182,166)"/><rect x="178" y="170" width="8" height="8" transform="rotate(0,182,174)"/><rect x="178" y="194" width="8" height="8" transform="rotate(0,182,198)"/><rect x="178" y="202" width="8" height="8" transform="rotate(0,182,206)"/><rect x="178" y="210" width="8" height="8" transform="rotate(0,182,214)"/><rect x="178" y="250" width="8" height="8" transform="rotate(0,182,254)"/><rect x="178" y="258" width="8" height="8" transform="rotate(0,182,262)"/><rect x="178" y="266" width="8" height="8" transform="rotate(0,182,270)"/><rect x="178" y="274" width="8" height="8" transform="rotate(0,182,278)"/><rect x="178" y="282" width="8" height="8" transform="rotate(0,182,286)"/><rect x="178" y="290" width="8" height="8" transform="rotate(0,182,294)"/><rect x="186" y="2" width="8" height="8" transform="rotate(0,190,6)"/><rect x="186" y="10" width="8" height="8" transform="rotate(0,190,14)"/><rect x="186" y="18" width="8" height="8" transform="rotate(0,190,22)"/><rect x="186" y="26" width="8" height="8" transform="rotate(0,190,30)"/><rect x="186" y="34" width="8" height="8" transform="rotate(0,190,38)"/><rect x="186" y="42" width="8" height="8" transform="rotate(0,190,46)"/><rect x="186" y="58" width="8" height="8" transform="rotate(0,190,62)"/><rect x="186" y="82" width="8" height="8" transform="rotate(0,190,86)"/><rect x="186" y="130" width="8" height="8" transform="rotate(0,190,134)"/><rect x="186" y="138" width="8" height="8" transform="rotate(0,190,142)"/><rect x="186" y="154" width="8" height="8" transform="rotate(0,190,158)"/><rect x="186" y="170" width="8" height="8" transform="rotate(0,190,174)"/><rect x="186" y="194" width="8" height="8" transform="rotate(0,190,198)"/><rect x="186" y="202" width="8" height="8" transform="rotate(0,190,206)"/><rect x="186" y="258" width="8" height="8" transform="rotate(0,190,262)"/><rect x="186" y="266" width="8" height="8" transform="rotate(0,190,270)"/><rect x="186" y="282" width="8" height="8" transform="rotate(0,190,286)"/><rect x="194" y="10" width="8" height="8" transform="rotate(0,198,14)"/><rect x="194" y="26" width="8" height="8" transform="rotate(0,198,30)"/><rect x="194" y="50" width="8" height="8" transform="rotate(0,198,54)"/><rect x="194" y="74" width="8" height="8" transform="rotate(0,198,78)"/><rect x="194" y="82" width="8" height="8" transform="rotate(0,198,86)"/><rect x="194" y="106" width="8" height="8" transform="rotate(0,198,110)"/><rect x="194" y="114" width="8" height="8" transform="rotate(0,198,118)"/><rect x="194" y="122" width="8" height="8" transform="rotate(0,198,126)"/><rect x="194" y="138" width="8" height="8" transform="rotate(0,198,142)"/><rect x="194" y="146" width="8" height="8" transform="rotate(0,198,150)"/><rect x="194" y="162" width="8" height="8" transform="rotate(0,198,166)"/><rect x="194" y="170" width="8" height="8" transform="rotate(0,198,174)"/><rect x="194" y="178" width="8" height="8" transform="rotate(0,198,182)"/><rect x="194" y="194" width="8" height="8" transform="rotate(0,198,198)"/><rect x="194" y="202" width="8" height="8" transform="rotate(0,198,206)"/><rect x="194" y="218" width="8" height="8" transform="rotate(0,198,222)"/><rect x="194" y="226" width="8" height="8" transform="rotate(0,198,230)"/><rect x="194" y="234" width="8" height="8" transform="rotate(0,198,238)"/><rect x="194" y="242" width="8" height="8" transform="rotate(0,198,246)"/><rect x="194" y="282" width="8" height="8" transform="rotate(0,198,286)"/><rect x="194" y="290" width="8" height="8" transform="rotate(0,198,294)"/><rect x="202" y="42" width="8" height="8" transform="rotate(0,206,46)"/><rect x="202" y="58" width="8" height="8" transform="rotate(0,206,62)"/><rect x="202" y="82" width="8" height="8" transform="rotate(0,206,86)"/><rect x="202" y="90" width="8" height="8" transform="rotate(0,206,94)"/><rect x="202" y="98" width="8" height="8" transform="rotate(0,206,102)"/><rect x="202" y="106" width="8" height="8" transform="rotate(0,206,110)"/><rect x="202" y="122" width="8" height="8" transform="rotate(0,206,126)"/><rect x="202" y="170" width="8" height="8" transform="rotate(0,206,174)"/><rect x="202" y="178" width="8" height="8" transform="rotate(0,206,182)"/><rect x="202" y="194" width="8" height="8" transform="rotate(0,206,198)"/><rect x="202" y="226" width="8" height="8" transform="rotate(0,206,230)"/><rect x="202" y="242" width="8" height="8" transform="rotate(0,206,246)"/><rect x="202" y="250" width="8" height="8" transform="rotate(0,206,254)"/><rect x="202" y="282" width="8" height="8" transform="rotate(0,206,286)"/><rect x="202" y="290" width="8" height="8" transform="rotate(0,206,294)"/><rect x="210" y="2" width="8" height="8" transform="rotate(0,214,6)"/><rect x="210" y="26" width="8" height="8" transform="rotate(0,214,30)"/><rect x="210" y="34" width="8" height="8" transform="rotate(0,214,38)"/><rect x="210" y="50" width="8" height="8" transform="rotate(0,214,54)"/><rect x="210" y="58" width="8" height="8" transform="rotate(0,214,62)"/><rect x="210" y="90" width="8" height="8" transform="rotate(0,214,94)"/><rect x="210" y="98" width="8" height="8" transform="rotate(0,214,102)"/><rect x="210" y="114" width="8" height="8" transform="rotate(0,214,118)"/><rect x="210" y="122" width="8" height="8" transform="rotate(0,214,126)"/><rect x="210" y="130" width="8" height="8" transform="rotate(0,214,134)"/><rect x="210" y="138" width="8" height="8" transform="rotate(0,214,142)"/><rect x="210" y="146" width="8" height="8" transform="rotate(0,214,150)"/><rect x="210" y="154" width="8" height="8" transform="rotate(0,214,158)"/><rect x="210" y="162" width="8" height="8" transform="rotate(0,214,166)"/><rect x="210" y="186" width="8" height="8" transform="rotate(0,214,190)"/><rect x="210" y="194" width="8" height="8" transform="rotate(0,214,198)"/><rect x="210" y="234" width="8" height="8" transform="rotate(0,214,238)"/><rect x="210" y="242" width="8" height="8" transform="rotate(0,214,246)"/><rect x="210" y="250" width="8" height="8" transform="rotate(0,214,254)"/><rect x="210" y="274" width="8" height="8" transform="rotate(0,214,278)"/><rect x="210" y="290" width="8" height="8" transform="rotate(0,214,294)"/><rect x="218" y="10" width="8" height="8" transform="rotate(0,222,14)"/><rect x="218" y="58" width="8" height="8" transform="rotate(0,222,62)"/><rect x="218" y="66" width="8" height="8" transform="rotate(0,222,70)"/><rect x="218" y="82" width="8" height="8" transform="rotate(0,222,86)"/><rect x="218" y="98" width="8" height="8" transform="rotate(0,222,102)"/><rect x="218" y="106" width="8" height="8" transform="rotate(0,222,110)"/><rect x="218" y="114" width="8" height="8" transform="rotate(0,222,118)"/><rect x="218" y="122" width="8" height="8" transform="rotate(0,222,126)"/><rect x="218" y="138" width="8" height="8" transform="rotate(0,222,142)"/><rect x="218" y="146" width="8" height="8" transform="rotate(0,222,150)"/><rect x="218" y="154" width="8" height="8" transform="rotate(0,222,158)"/><rect x="218" y="170" width="8" height="8" transform="rotate(0,222,174)"/><rect x="218" y="178" width="8" height="8" transform="rotate(0,222,182)"/><rect x="218" y="186" width="8" height="8" transform="rotate(0,222,190)"/><rect x="218" y="194" width="8" height="8" transform="rotate(0,222,198)"/><rect x="218" y="202" width="8" height="8" transform="rotate(0,222,206)"/><rect x="218" y="210" width="8" height="8" transform="rotate(0,222,214)"/><rect x="218" y="242" width="8" height="8" transform="rotate(0,222,246)"/><rect x="218" y="250" width="8" height="8" transform="rotate(0,222,254)"/><rect x="218" y="258" width="8" height="8" transform="rotate(0,222,262)"/><rect x="218" y="282" width="8" height="8" transform="rotate(0,222,286)"/><rect x="218" y="290" width="8" height="8" transform="rotate(0,222,294)"/><rect x="226" y="2" width="8" height="8" transform="rotate(0,230,6)"/><rect x="226" y="10" width="8" height="8" transform="rotate(0,230,14)"/><rect x="226" y="18" width="8" height="8" transform="rotate(0,230,22)"/><rect x="226" y="26" width="8" height="8" transform="rotate(0,230,30)"/><rect x="226" y="42" width="8" height="8" transform="rotate(0,230,46)"/><rect x="226" y="50" width="8" height="8" transform="rotate(0,230,54)"/><rect x="226" y="74" width="8" height="8" transform="rotate(0,230,78)"/><rect x="226" y="82" width="8" height="8" transform="rotate(0,230,86)"/><rect x="226" y="90" width="8" height="8" transform="rotate(0,230,94)"/><rect x="226" y="98" width="8" height="8" transform="rotate(0,230,102)"/><rect x="226" y="122" width="8" height="8" transform="rotate(0,230,126)"/><rect x="226" y="138" width="8" height="8" transform="rotate(0,230,142)"/><rect x="226" y="146" width="8" height="8" transform="rotate(0,230,150)"/><rect x="226" y="162" width="8" height="8" transform="rotate(0,230,166)"/><rect x="226" y="170" width="8" height="8" transform="rotate(0,230,174)"/><rect x="226" y="194" width="8" height="8" transform="rotate(0,230,198)"/><rect x="226" y="226" width="8" height="8" transform="rotate(0,230,230)"/><rect x="226" y="234" width="8" height="8" transform="rotate(0,230,238)"/><rect x="226" y="242" width="8" height="8" transform="rotate(0,230,246)"/><rect x="226" y="250" width="8" height="8" transform="rotate(0,230,254)"/><rect x="226" y="258" width="8" height="8" transform="rotate(0,230,262)"/><rect x="226" y="274" width="8" height="8" transform="rotate(0,230,278)"/><rect x="226" y="282" width="8" height="8" transform="rotate(0,230,286)"/><rect x="234" y="66" width="8" height="8" transform="rotate(0,238,70)"/><rect x="234" y="82" width="8" height="8" transform="rotate(0,238,86)"/><rect x="234" y="90" width="8" height="8" transform="rotate(0,238,94)"/><rect x="234" y="138" width="8" height="8" transform="rotate(0,238,142)"/><rect x="234" y="162" width="8" height="8" transform="rotate(0,238,166)"/><rect x="234" y="186" width="8" height="8" transform="rotate(0,238,190)"/><rect x="234" y="194" width="8" height="8" transform="rotate(0,238,198)"/><rect x="234" y="210" width="8" height="8" transform="rotate(0,238,214)"/><rect x="234" y="218" width="8" height="8" transform="rotate(0,238,222)"/><rect x="234" y="226" width="8" height="8" transform="rotate(0,238,230)"/><rect x="234" y="258" width="8" height="8" transform="rotate(0,238,262)"/><rect x="234" y="282" width="8" height="8" transform="rotate(0,238,286)"/><rect x="234" y="290" width="8" height="8" transform="rotate(0,238,294)"/><rect x="242" y="66" width="8" height="8" transform="rotate(0,246,70)"/><rect x="242" y="74" width="8" height="8" transform="rotate(0,246,78)"/><rect x="242" y="98" width="8" height="8" transform="rotate(0,246,102)"/><rect x="242" y="106" width="8" height="8" transform="rotate(0,246,110)"/><rect x="242" y="130" width="8" height="8" transform="rotate(0,246,134)"/><rect x="242" y="146" width="8" height="8" transform="rotate(0,246,150)"/><rect x="242" y="162" width="8" height="8" transform="rotate(0,246,166)"/><rect x="242" y="170" width="8" height="8" transform="rotate(0,246,174)"/><rect x="242" y="194" width="8" height="8" transform="rotate(0,246,198)"/><rect x="242" y="210" width="8" height="8" transform="rotate(0,246,214)"/><rect x="242" y="218" width="8" height="8" transform="rotate(0,246,222)"/><rect x="242" y="226" width="8" height="8" transform="rotate(0,246,230)"/><rect x="242" y="242" width="8" height="8" transform="rotate(0,246,246)"/><rect x="242" y="258" width="8" height="8" transform="rotate(0,246,262)"/><rect x="242" y="274" width="8" height="8" transform="rotate(0,246,278)"/><rect x="242" y="282" width="8" height="8" transform="rotate(0,246,286)"/><rect x="242" y="290" width="8" height="8" transform="rotate(0,246,294)"/><rect x="250" y="66" width="8" height="8" transform="rotate(0,254,70)"/><rect x="250" y="74" width="8" height="8" transform="rotate(0,254,78)"/><rect x="250" y="90" width="8" height="8" transform="rotate(0,254,94)"/><rect x="250" y="106" width="8" height="8" transform="rotate(0,254,110)"/><rect x="250" y="114" width="8" height="8" transform="rotate(0,254,118)"/><rect x="250" y="122" width="8" height="8" transform="rotate(0,254,126)"/><rect x="250" y="138" width="8" height="8" transform="rotate(0,254,142)"/><rect x="250" y="146" width="8" height="8" transform="rotate(0,254,150)"/><rect x="250" y="154" width="8" height="8" transform="rotate(0,254,158)"/><rect x="250" y="162" width="8" height="8" transform="rotate(0,254,166)"/><rect x="250" y="170" width="8" height="8" transform="rotate(0,254,174)"/><rect x="250" y="210" width="8" height="8" transform="rotate(0,254,214)"/><rect x="250" y="226" width="8" height="8" transform="rotate(0,254,230)"/><rect x="250" y="258" width="8" height="8" transform="rotate(0,254,262)"/><rect x="250" y="274" width="8" height="8" transform="rotate(0,254,278)"/><rect x="250" y="290" width="8" height="8" transform="rotate(0,254,294)"/><rect x="258" y="74" width="8" height="8" transform="rotate(0,262,78)"/><rect x="258" y="106" width="8" height="8" transform="rotate(0,262,110)"/><rect x="258" y="178" width="8" height="8" transform="rotate(0,262,182)"/><rect x="258" y="186" width="8" height="8" transform="rotate(0,262,190)"/><rect x="258" y="194" width="8" height="8" transform="rotate(0,262,198)"/><rect x="258" y="202" width="8" height="8" transform="rotate(0,262,206)"/><rect x="258" y="210" width="8" height="8" transform="rotate(0,262,214)"/><rect x="258" y="226" width="8" height="8" transform="rotate(0,262,230)"/><rect x="258" y="234" width="8" height="8" transform="rotate(0,262,238)"/><rect x="258" y="242" width="8" height="8" transform="rotate(0,262,246)"/><rect x="258" y="250" width="8" height="8" transform="rotate(0,262,254)"/><rect x="258" y="258" width="8" height="8" transform="rotate(0,262,262)"/><rect x="258" y="266" width="8" height="8" transform="rotate(0,262,270)"/><rect x="258" y="282" width="8" height="8" transform="rotate(0,262,286)"/><rect x="258" y="290" width="8" height="8" transform="rotate(0,262,294)"/><rect x="266" y="66" width="8" height="8" transform="rotate(0,270,70)"/><rect x="266" y="74" width="8" height="8" transform="rotate(0,270,78)"/><rect x="266" y="90" width="8" height="8" transform="rotate(0,270,94)"/><rect x="266" y="122" width="8" height="8" transform="rotate(0,270,126)"/><rect x="266" y="130" width="8" height="8" transform="rotate(0,270,134)"/><rect x="266" y="138" width="8" height="8" transform="rotate(0,270,142)"/><rect x="266" y="154" width="8" height="8" transform="rotate(0,270,158)"/><rect x="266" y="162" width="8" height="8" transform="rotate(0,270,166)"/><rect x="266" y="194" width="8" height="8" transform="rotate(0,270,198)"/><rect x="266" y="210" width="8" height="8" transform="rotate(0,270,214)"/><rect x="266" y="234" width="8" height="8" transform="rotate(0,270,238)"/><rect x="266" y="258" width="8" height="8" transform="rotate(0,270,262)"/><rect x="266" y="290" width="8" height="8" transform="rotate(0,270,294)"/><rect x="274" y="74" width="8" height="8" transform="rotate(0,278,78)"/><rect x="274" y="90" width="8" height="8" transform="rotate(0,278,94)"/><rect x="274" y="130" width="8" height="8" transform="rotate(0,278,134)"/><rect x="274" y="138" width="8" height="8" transform="rotate(0,278,142)"/><rect x="274" y="162" width="8" height="8" transform="rotate(0,278,166)"/><rect x="274" y="178" width="8" height="8" transform="rotate(0,278,182)"/><rect x="274" y="202" width="8" height="8" transform="rotate(0,278,206)"/><rect x="274" y="218" width="8" height="8" transform="rotate(0,278,222)"/><rect x="274" y="226" width="8" height="8" transform="rotate(0,278,230)"/><rect x="274" y="234" width="8" height="8" transform="rotate(0,278,238)"/><rect x="274" y="258" width="8" height="8" transform="rotate(0,278,262)"/><rect x="274" y="266" width="8" height="8" transform="rotate(0,278,270)"/><rect x="274" y="290" width="8" height="8" transform="rotate(0,278,294)"/><rect x="282" y="66" width="8" height="8" transform="rotate(0,286,70)"/><rect x="282" y="82" width="8" height="8" transform="rotate(0,286,86)"/><rect x="282" y="98" width="8" height="8" transform="rotate(0,286,102)"/><rect x="282" y="106" width="8" height="8" transform="rotate(0,286,110)"/><rect x="282" y="114" width="8" height="8" transform="rotate(0,286,118)"/><rect x="282" y="122" width="8" height="8" transform="rotate(0,286,126)"/><rect x="282" y="146" width="8" height="8" transform="rotate(0,286,150)"/><rect x="282" y="170" width="8" height="8" transform="rotate(0,286,174)"/><rect x="282" y="178" width="8" height="8" transform="rotate(0,286,182)"/><rect x="282" y="202" width="8" height="8" transform="rotate(0,286,206)"/><rect x="282" y="218" width="8" height="8" transform="rotate(0,286,222)"/><rect x="282" y="226" width="8" height="8" transform="rotate(0,286,230)"/><rect x="290" y="90" width="8" height="8" transform="rotate(0,294,94)"/><rect x="290" y="98" width="8" height="8" transform="rotate(0,294,102)"/><rect x="290" y="106" width="8" height="8" transform="rotate(0,294,110)"/><rect x="290" y="122" width="8" height="8" transform="rotate(0,294,126)"/><rect x="290" y="138" width="8" height="8" transform="rotate(0,294,142)"/><rect x="290" y="146" width="8" height="8" transform="rotate(0,294,150)"/><rect x="290" y="154" width="8" height="8" transform="rotate(0,294,158)"/><rect x="290" y="162" width="8" height="8" transform="rotate(0,294,166)"/><rect x="290" y="170" width="8" height="8" transform="rotate(0,294,174)"/><rect x="290" y="186" width="8" height="8" transform="rotate(0,294,190)"/><rect x="290" y="202" width="8" height="8" transform="rotate(0,294,206)"/><rect x="290" y="218" width="8" height="8" transform="rotate(0,294,222)"/><rect x="290" y="226" width="8" height="8" transform="rotate(0,294,230)"/><rect x="290" y="234" width="8" height="8" transform="rotate(0,294,238)"/><rect x="290" y="242" width="8" height="8" transform="rotate(0,294,246)"/><rect x="290" y="250" width="8" height="8" transform="rotate(0,294,254)"/><rect x="290" y="282" width="8" height="8" transform="rotate(0,294,286)"/><rect x="290" y="290" width="8" height="8" transform="rotate(0,294,294)"/><path clip-rule="evenodd" d="M 2 2v 56h 56v -56zM 10 10h 40v 40h -40z" transform="rotate(0,30,30)"/><rect x="18" y="18" width="8" height="8" transform="rotate(0,22,22)"/><rect x="18" y="26" width="8" height="8" transform="rotate(0,22,30)"/><rect x="18" y="34" width="8" height="8" transform="rotate(0,22,38)"/><rect x="26" y="18" width="8" height="8" transform="rotate(0,30,22)"/><rect x="26" y="26" width="8" height="8" transform="rotate(0,30,30)"/><rect x="26" y="34" width="8" height="8" transform="rotate(0,30,38)"/><rect x="34" y="18" width="8" height="8" transform="rotate(0,38,22)"/><rect x="34" y="26" width="8" height="8" transform="rotate(0,38,30)"/><rect x="34" y="34" width="8" height="8" transform="rotate(0,38,38)"/><path clip-rule="evenodd" d="M 242 2v 56h 56v -56zM 250 10h 40v 40h -40z" transform="rotate(90,270,30)"/><rect x="258" y="18" width="8" height="8" transform="rotate(0,262,22)"/><rect x="258" y="26" width="8" height="8" transform="rotate(0,262,30)"/><rect x="258" y="34" width="8" height="8" transform="rotate(0,262,38)"/><rect x="266" y="18" width="8" height="8" transform="rotate(0,270,22)"/><rect x="266" y="26" width="8" height="8" transform="rotate(0,270,30)"/><rect x="266" y="34" width="8" height="8" transform="rotate(0,270,38)"/><rect x="274" y="18" width="8" height="8" transform="rotate(0,278,22)"/><rect x="274" y="26" width="8" height="8" transform="rotate(0,278,30)"/><rect x="274" y="34" width="8" height="8" transform="rotate(0,278,38)"/><path clip-rule="evenodd" d="M 2 242v 56h 56v -56zM 10 250h 40v 40h -40z" transform="rotate(-90,30,270)"/><rect x="18" y="258" width="8" height="8" transform="rotate(0,22,262)"/><rect x="18" y="266" width="8" height="8" transform="rotate(0,22,270)"/><rect x="18" y="274" width="8" height="8" transform="rotate(0,22,278)"/><rect x="26" y="258" width="8" height="8" transform="rotate(0,30,262)"/><rect x="26" y="266" width="8" height="8" transform="rotate(0,30,270)"/><rect x="26" y="274" width="8" height="8" transform="rotate(0,30,278)"/><rect x="34" y="258" width="8" height="8" transform="rotate(0,38,262)"/><rect x="34" y="266" width="8" height="8" transform="rotate(0,38,270)"/><rect x="34" y="274" width="8" height="8" transform="rotate(0,38,278)"/></clipPath></defs><rect x="0" y="0" height="300" width="300" clip-path="url('#clip-path-background-color')" fill="#fff"/><rect x="0" y="0" height="300" width="300" clip-path="url('#clip-path-dot-color')" fill="#000000"/></svg>